<svg width="528.2" height="780.1" xmlns="http://www.w3.org/2000/svg">
 <style type="text/css">.st0{fill:#4A90E2;}
	.st1{fill:#000034;}
	.st2{fill:#FFFFFF;}</style>

 <g>
  <title>background</title>
  <rect fill="none" id="canvas_background" height="782.1" width="530.2" y="-1" x="-1"/>
 </g>
 <g>
  <title>Layer 1</title>
  <g stroke="null" id="svg_7">
   <g stroke="null" id="svg_1">
    <path stroke="null" id="svg_2" d="m264.100004,325.199985l0,0c-111.699827,0 -202.300006,90.600179 -202.300006,202.300006l0,0c0,111.699827 90.600179,202.300006 202.300006,202.300006l0,0c111.699827,0 202.300006,-90.600179 202.300006,-202.300006l0,0c0,-111.699827 -90.600179,-202.300006 -202.300006,-202.300006z" class="st0"/>
   </g>
   <g stroke="null" id="svg_3">
    <path stroke="null" id="svg_4" d="m280.067306,527.499991c0,8.839042 -7.12826,15.967301 -15.967301,15.967301s-15.967301,-7.12826 -15.967301,-15.967301c0,-11.975476 -3.991825,-15.967301 -15.967301,-15.967301s-15.896019,4.063108 -15.896019,15.967301c0,8.839042 -7.12826,15.967301 -15.967301,15.967301s-15.967301,-7.12826 -15.967301,-15.967301c0,-8.839042 7.12826,-15.967301 15.967301,-15.967301c11.975476,0 15.967301,-3.991825 15.967301,-15.967301c0,-8.839042 7.12826,-15.967301 15.967301,-15.967301s15.967301,7.12826 15.967301,15.967301c0,11.975476 3.991825,15.967301 15.967301,15.967301c8.696477,0.071283 15.896019,7.199542 15.896019,15.967301z" class="st1"/>
    <circle stroke="null" id="svg_5" r="15.967297" cy="559.434593" cx="168.438761" class="st1"/>
    <path stroke="null" id="svg_6" d="m375.657266,495.636671c0,8.839042 -7.12826,15.967301 -15.967301,15.967301c-11.975476,0 -15.967301,3.991825 -15.967301,15.967301c0,8.839042 -7.12826,15.967301 -15.967301,15.967301c-11.975476,0 -15.967301,3.991825 -15.967301,15.967301c0,8.839042 -7.12826,15.967301 -15.967301,15.967301s-15.967301,-7.12826 -15.967301,-15.967301c0,-8.839042 7.12826,-15.967301 15.967301,-15.967301c11.975476,0 15.967301,-3.991825 15.967301,-15.967301c0,-8.839042 7.12826,-15.967301 15.967301,-15.967301c11.975476,0 15.967301,-3.991825 15.967301,-15.967301c0,-8.839042 7.12826,-15.967301 15.967301,-15.967301c8.839042,0 15.967301,7.199542 15.967301,15.967301z" class="st1"/>
   </g>
  </g>
  <g stroke="null" id="svg_15">
   <circle stroke="null" transform="matrix(1.511496223779751,0,0,1.511496223779751,-456.73911190553537,-374.28275430264364) " id="svg_11" fill="#fff" r="21.695" cy="317.481734" cx="405.684098"/>
   <path stroke="null" id="svg_12" fill="#F70000" d="m330.862419,270.350334c-61.028172,-40.988755 -155.759686,-18.218064 -155.759686,-18.218064c-71.957801,24.564837 -98.829181,3.644217 -87.44308,-58.295386c5.987037,-32.569721 24.267072,-54.655703 42.231204,-69.010383c-2.726739,-3.75758 -4.678081,-8.115223 -5.612185,-12.84016c-39.654103,20.199636 -92.987248,61.942627 -113.130958,144.698556c-28.24533,116.034542 27.309714,168.07838 46.044709,181.893456c4.783886,-14.454438 12.679942,-28.334508 19.972911,-41.185249c8.877017,-15.640963 19.265531,-30.423396 30.98265,-44.063138c17.643695,-20.541234 38.88324,-37.965762 62.69384,-50.879986c22.46688,-12.185683 49.557427,-21.952971 75.509817,-21.983201c31.62957,-0.036276 62.775461,3.943494 92.376603,15.501905c15.944774,6.227364 30.530712,14.782433 44.639018,24.223238c-10.069588,-14.536059 -26.33631,-32.270444 -52.506356,-49.846122l0.001511,0.004534z"/>
   <path stroke="null" id="svg_13" fill="#fff" d="m53.729586,451.563616c-1.602186,13.166644 0.137546,39.540741 18.35561,32.531933s142.09576,-108.74913 293.290727,-54.374565c151.210082,54.374565 94.731514,-124.789128 68.315095,-96.551356c-26.414908,28.236261 -51.919895,-57.383954 -186.730243,-55.562601c0,0 -121.74044,-1.688341 -187.637141,153.930775c-2.026916,4.785397 -4.658431,12.249165 -5.603117,20.019767l0.009069,0.006046z"/>
   <path stroke="null" id="svg_14" d="m457.737412,345.562386c-3.09101,-6.922653 -9.215592,-18.95114 -18.221087,-19.081128c-4.396943,-0.063483 -6.896957,4.256373 -10.164812,6.463158c-4.056856,2.738831 -8.810511,2.701044 -13.320816,1.243961c-13.550564,-4.375782 -25.488361,-15.766417 -37.279543,-23.75014c-18.346541,-23.925474 -44.178012,-44.477288 -71.883737,-55.502141c-40.057673,-15.940239 -89.628703,-15.507951 -131.297631,-5.571375c-21.585678,7.27332 -50.91475,16.640062 -72.63344,4.764236c-23.875594,-13.053281 -17.673925,-48.777495 -11.166934,-69.757062c6.44502,-20.783073 20.114992,-39.768977 37.441273,-54.241553c8.149988,7.562016 20.146733,11.120078 31.526788,8.278465c6.626399,-1.655088 13.030609,-3.296573 18.816616,-7.082871c9.032701,-5.908439 13.730432,-16.407292 14.056915,-26.916725c-0.669593,-21.529752 -20.373458,-36.919807 -41.46941,-31.650731c-6.626399,1.655088 -13.030609,3.296573 -18.816616,7.082871c-9.032701,5.908439 -13.730432,16.407292 -14.056915,26.915213c-0.054414,1.726129 0.051391,3.403889 0.272069,5.037817c-7.906637,4.410546 -15.518532,9.215592 -22.666397,14.236783c-51.889665,36.451243 -81.428836,93.448254 -90.751745,155.366697c-7.472837,49.63149 -1.287795,103.844325 31.930358,143.421342c4.941081,5.885766 10.491295,11.487371 16.590183,16.307533c-0.597041,2.406302 -1.120019,4.832253 -1.479755,7.311107c-0.004534,0.031741 -0.006046,0.072552 -0.01058,0.105805c-0.025695,0.113362 -0.049879,0.263 -0.074063,0.483679c-1.550795,14.091679 -1.038398,49.988203 22.140397,37.265939c15.353779,-8.428103 29.832401,-18.351076 45.290473,-26.646167c58.396657,-31.339363 124.381024,-48.376948 190.735708,-39.369942c20.52763,2.787199 39.960937,8.757609 59.52121,15.343198c12.976195,4.368224 26.482925,7.565039 40.189173,8.264861c16.720171,0.853995 33.914952,-3.456792 44.626926,-17.078396c16.89097,-21.467781 12.56658,-57.920535 2.158417,-81.238388l-0.003023,-0.006046zm-321.434787,-262.924768c2.504549,-2.98974 5.745197,-5.250938 9.100719,-7.170538c3.669913,-2.102491 3.437142,-1.594629 8.728891,-1.429875c17.451735,0.542627 30.198183,16.059647 30.716626,32.725405c-0.255443,8.251258 -2.973113,15.449003 -8.275442,21.779149c-2.504549,2.98974 -5.745197,5.250938 -9.100719,7.17205c-3.669913,2.10098 -3.437142,1.594629 -8.728891,1.429875c-17.451735,-0.542627 -30.198183,-16.059647 -30.716626,-32.726916c-0.250908,-8.054763 3.201349,-15.722584 8.275442,-21.779149zm-93.723346,339.693661c-42.606056,-44.91411 -44.339742,-110.724656 -29.165831,-167.564471c15.1331,-56.684131 51.898734,-104.545659 102.876967,-133.463605c1.639973,-0.92957 3.304131,-1.847048 4.981892,-2.753946c1.039909,2.681394 2.451647,5.169317 4.164172,7.422958c-17.953552,16.439033 -31.242627,37.982389 -36.674944,61.434764c-4.620644,19.948727 -8.056275,48.665644 5.043863,66.321431c14.815686,19.968377 46.487578,13.280006 66.587455,7.885476c5.114903,-1.372439 10.158766,-3.00032 15.175422,-4.691684c40.187662,-9.582886 86.103894,-9.641834 125.360474,3.406912c23.662473,7.865826 45.530801,23.086593 63.372502,41.312215c-18.713835,-10.39456 -38.777436,-17.929368 -59.838624,-22.442696c-33.512894,-7.181119 -67.287277,-7.844665 -99.967337,2.472808c-50.361543,15.897917 -91.026837,52.420201 -119.377972,96.197666c-7.090429,10.949279 -13.323839,22.433627 -19.020668,34.161326c-3.635148,7.481906 -7.146354,15.048456 -9.700783,22.92184c-4.989449,-3.778741 -9.587421,-8.165103 -13.816587,-12.624016l0,0.003023zm376.105605,13.999478c-32.126852,1.732175 -62.232834,-14.96079 -93.067357,-21.188154c-64.202314,-12.967126 -130.017394,0.598553 -188.408004,28.470543c-18.263409,8.71831 -35.65015,19.005554 -52.846442,29.635906c-3.993373,2.469785 -7.995815,5.217685 -12.326252,7.075314c-16.039998,6.878819 -19.536089,-14.682674 -18.391886,-25.740781c2.985205,-19.83083 13.854374,-38.910447 23.633755,-56.139993c8.877017,-15.640963 19.265531,-30.423396 30.98265,-44.063138c17.643695,-20.541234 38.88324,-37.965762 62.69384,-50.879986c22.46688,-12.185683 49.557427,-21.952971 75.509817,-21.983201c31.62957,-0.036276 62.775461,3.943494 92.375092,15.501905c20.515538,8.012441 38.786505,19.871641 56.675062,32.522864c8.221028,5.814726 20.349274,16.484378 31.304598,12.291487c4.268465,-1.633927 6.491876,-6.200158 10.808709,-7.52574c3.523298,-1.08072 7.052641,1.027817 9.61765,3.245182c9.072,7.840131 13.499173,21.600793 16.061159,32.861439c3.334361,14.650933 2.917188,29.991108 -4.285092,43.470631c-8.045694,15.057525 -23.976865,21.564517 -40.334277,22.445719l-0.003023,0z"/>
  </g>
 </g>
</svg>