<?xml version="1.0" encoding="UTF-8"?>
<!DOCTYPE svg  PUBLIC '-//W3C//DTD SVG 1.1//EN'  'http://www.w3.org/Graphics/SVG/1.1/DTD/svg11.dtd'>
<svg enable-background="new 0 0 400 500" version="1.1" viewBox="0 0 400 500" xml:space="preserve" xmlns="http://www.w3.org/2000/svg">
<circle cx="108.15" cy="29.695" r="21.695" fill="#fff"/>
<path d="m223.54 138.7c-40.376-27.118-103.05-12.053-103.05-12.053-47.607 16.252-65.385 2.411-57.852-38.568 3.961-21.548 16.055-36.16 27.94-45.657-1.804-2.486-3.095-5.369-3.713-8.495-26.235 13.364-61.52 40.981-74.847 95.732-18.687 76.768 18.068 111.2 30.463 120.34 3.165-9.563 8.389-18.746 13.214-27.248 5.873-10.348 12.746-20.128 20.498-29.152 11.673-13.59 25.725-25.118 41.478-33.662 14.864-8.062 32.787-14.524 49.957-14.544 20.926-0.024 41.532 2.609 61.116 10.256 10.549 4.12 20.199 9.78 29.533 16.026-6.662-9.617-17.424-21.35-34.738-32.978z" fill="#F70000"/>
<path d="m40.19 258.59c-1.06 8.711 0.091 26.16 12.144 21.523s94.01-71.948 194.04-35.974c100.04 35.974 62.674-82.56 45.197-63.878-17.476 18.681-34.35-37.965-123.54-36.76 0 0-80.543-1.117-124.14 101.84-1.341 3.166-3.082 8.104-3.707 13.245z" fill="#fff"/>
	<path d="m307.48 188.46c-2.045-4.58-6.097-12.538-12.055-12.624-2.909-0.042-4.563 2.816-6.725 4.276-2.684 1.812-5.829 1.787-8.813 0.823-8.965-2.895-16.863-10.431-24.664-15.713-12.138-15.829-29.228-29.426-47.558-36.72-26.502-10.546-59.298-10.26-86.866-3.686-14.281 4.812-33.685 11.009-48.054 3.152-15.796-8.636-11.693-32.271-7.388-46.151 4.264-13.75 13.308-26.311 24.771-35.886 5.392 5.003 13.329 7.357 20.858 5.477 4.384-1.095 8.621-2.181 12.449-4.686 5.976-3.909 9.084-10.855 9.3-17.808-0.443-14.244-13.479-24.426-27.436-20.94-4.384 1.095-8.621 2.181-12.449 4.686-5.976 3.909-9.084 10.855-9.3 17.807-0.036 1.142 0.034 2.252 0.18 3.333-5.231 2.918-10.267 6.097-14.996 9.419-34.33 24.116-53.873 61.825-60.041 102.79-4.944 32.836-0.852 68.703 21.125 94.887 3.269 3.894 6.941 7.6 10.976 10.789-0.395 1.592-0.741 3.197-0.979 4.837-3e-3 0.021-4e-3 0.048-7e-3 0.07-0.017 0.075-0.033 0.174-0.049 0.32-1.026 9.323-0.687 33.072 14.648 24.655 10.158-5.576 19.737-12.141 29.964-17.629 38.635-20.734 82.29-32.006 126.19-26.047 13.581 1.844 26.438 5.794 39.379 10.151 8.585 2.89 17.521 5.005 26.589 5.468 11.062 0.565 22.438-2.287 29.525-11.299 11.175-14.203 8.314-38.32 1.428-53.747zm-212.66-173.95c1.657-1.978 3.801-3.474 6.021-4.744 2.428-1.391 2.274-1.055 5.775-0.946 11.546 0.359 19.979 10.625 20.322 21.651-0.169 5.459-1.967 10.221-5.475 14.409-1.657 1.978-3.801 3.474-6.021 4.745-2.428 1.39-2.274 1.055-5.775 0.946-11.546-0.359-19.979-10.625-20.322-21.652-0.166-5.329 2.118-10.402 5.475-14.409zm-62.007 224.74c-28.188-29.715-29.335-73.255-19.296-110.86 10.012-37.502 34.336-69.167 68.063-88.299 1.085-0.615 2.186-1.222 3.296-1.822 0.688 1.774 1.622 3.42 2.755 4.911-11.878 10.876-20.67 25.129-24.264 40.645-3.057 13.198-5.33 32.197 3.337 43.878 9.802 13.211 30.756 8.786 44.054 5.217 3.384-0.908 6.721-1.985 10.04-3.104 26.588-6.34 56.966-6.379 82.938 2.254 15.655 5.204 30.123 15.274 41.927 27.332-12.381-6.877-25.655-11.862-39.589-14.848-22.172-4.751-44.517-5.19-66.138 1.636-33.319 10.518-60.223 34.681-78.98 63.644-4.691 7.244-8.815 14.842-12.584 22.601-2.405 4.95-4.728 9.956-6.418 15.165-3.301-2.5-6.343-5.402-9.141-8.352zm248.83 9.262c-21.255 1.146-41.173-9.898-61.573-14.018-42.476-8.579-86.019 0.396-124.65 18.836-12.083 5.768-23.586 12.574-34.963 19.607-2.642 1.634-5.29 3.452-8.155 4.681-10.612 4.551-12.925-9.714-12.168-17.03 1.975-13.12 9.166-25.743 15.636-37.142 5.873-10.348 12.746-20.128 20.498-29.152 11.673-13.59 25.725-25.118 41.478-33.662 14.864-8.062 32.787-14.524 49.957-14.544 20.926-0.024 41.532 2.609 61.115 10.256 13.573 5.301 25.661 13.147 37.496 21.517 5.439 3.847 13.463 10.906 20.711 8.132 2.824-1.081 4.295-4.102 7.151-4.979 2.331-0.715 4.666 0.68 6.363 2.147 6.002 5.187 8.931 14.291 10.626 21.741 2.206 9.693 1.93 19.842-2.835 28.76-5.323 9.962-15.863 14.267-26.685 14.85z"/>
</svg>
